<svg width="193" height="39" viewBox="0 0 193 39" fill="none" xmlns="http://www.w3.org/2000/svg">
<path d="M8.98705 19.322L4.61908 23.6863L0.254883 19.322L4.61908 14.9578L8.98705 19.322ZM19.5766 8.72473L27.0554 16.2074L31.4196 11.8431L19.5766 0L7.73367 11.8431L12.0979 16.2074L19.5766 8.72473ZM34.538 14.9578L30.1738 19.322L34.538 23.6863L38.8984 19.322L34.538 14.9578ZM19.5766 29.9193L12.0979 22.4404L7.73367 26.8009L19.5766 38.644L31.4196 26.8009L27.0554 22.4404L19.5766 29.9193ZM19.5766 23.6863L23.9408 19.322L19.5766 14.9578L15.2125 19.322L19.5766 23.6863ZM65.6348 24.1053V24.0449C65.6348 21.1983 64.1247 19.775 61.667 18.8388C63.1771 17.9893 64.4531 16.6566 64.4531 14.2669V14.2065C64.4531 10.8767 61.7878 8.72473 57.4576 8.72473H47.6268V29.9193H57.7067C62.49 29.9193 65.6423 27.9826 65.6423 24.1053H65.6348ZM59.8209 15.0446C59.8209 16.6189 58.5184 17.2871 56.4609 17.2871H52.1684V12.8134H56.7705C58.7374 12.8134 59.8284 13.5986 59.8284 14.9917L59.8209 15.0446ZM61.0025 23.5239C61.0025 25.0982 59.7605 25.8231 57.6992 25.8231H52.1684V21.1681H57.5557C59.9492 21.1681 61.0101 22.0478 61.0101 23.4711L61.0025 23.5239ZM75.4316 29.9193V8.72473H70.754V29.9193H75.4316ZM100.496 29.9193V8.72473H95.8784V21.776L85.9494 8.72473H81.6494V29.9193H86.2515V16.4452L96.5126 29.9193H100.496ZM126.322 29.9193L117.224 8.57372H112.924L103.844 29.9193H108.597L110.541 25.1662H119.504L121.441 29.9193H126.322ZM117.847 21.0473H112.199L115.015 14.1763L117.847 21.0473ZM148.547 29.9193V8.72473H143.93V21.776L133.997 8.72473H129.701V29.9193H134.299V16.4452L144.564 29.9193H148.547ZM172.614 26.4989L169.651 23.5013C167.986 25.0114 166.502 25.9816 164.078 25.9816C160.447 25.9816 157.932 22.9614 157.932 19.322V19.2616C157.932 15.6298 160.507 12.6624 164.078 12.6624C166.196 12.6624 167.854 13.5684 169.5 15.0521L172.456 11.6317C170.489 9.69498 168.099 8.3623 164.101 8.3623C157.592 8.3623 153.051 13.2966 153.051 19.3107V19.3711C153.051 25.4569 157.683 30.2704 163.92 30.2704C168.001 30.2817 170.421 28.8282 172.599 26.4989H172.614ZM192.51 29.9193V25.7665H180.988V21.3078H190.981V17.155H180.988V12.8738H192.344V8.72095H176.356V29.9155L192.51 29.9193Z" fill="#424147"/>
</svg>
