<svg width="190" height="42" viewBox="0 0 190 42" fill="none" xmlns="http://www.w3.org/2000/svg">
<path fill-rule="evenodd" clip-rule="evenodd" d="M15.2203 36.0705C16.685 36.0705 18.0553 35.8028 19.3468 35.283C19.3468 35.3302 21.977 39.4095 22.0243 39.4253C19.6963 40.6725 17.0892 41.3067 14.4485 41.2681C6.36877 41.2838 0.509766 35.9445 0.509766 27.4552C0.509766 18.9028 6.65227 13.595 14.4485 13.595C17.2048 13.595 19.394 14.1935 21.5833 15.359L19.0633 19.6116C17.7403 19.0918 16.3858 18.8555 14.9683 18.8555C10.196 18.8555 6.49477 21.8953 6.49477 27.4552C6.49477 32.7157 10.07 36.0705 15.2203 36.0705ZM35.585 13.595C43.523 13.595 49.2718 19.2178 49.2718 27.4552C49.2718 35.6453 43.523 41.2681 35.5693 41.2681C27.6943 41.2681 21.9455 35.6453 21.9455 27.4552C21.9455 19.2178 27.6943 13.595 35.585 13.595ZM35.585 18.6665C31.1593 18.6665 27.9305 22.0843 27.9305 27.4552C27.9305 32.7787 31.1593 36.1965 35.585 36.1965C40.121 36.1965 43.3025 32.7787 43.3025 27.4552C43.3025 22.0843 40.121 18.6665 35.585 18.6665ZM53.036 40.6696V14.1935H58.958V40.6538H53.036V40.6696ZM52.2485 6.05064C52.3099 5.10868 52.7274 4.22537 53.4163 3.57996C54.1051 2.93456 55.0137 2.57542 55.9576 2.57542C56.9016 2.57542 57.8102 2.93456 58.499 3.57996C59.1879 4.22537 59.6054 5.10868 59.6668 6.05064C59.667 7.03967 59.2796 7.9894 58.5876 8.69607C57.8957 9.40275 56.9543 9.81008 55.9655 9.83068C54.9767 9.81008 54.0354 9.40275 53.3434 8.69607C52.6515 7.9894 52.2641 7.03967 52.2643 6.05064H52.2485ZM64.124 15.863C68.0032 14.4049 72.1076 13.6373 76.2515 13.595C83.024 13.595 87.308 16.1623 87.308 23.6279V40.6696H81.4648V24.1791C81.4648 20.3518 79.0865 18.9815 75.7948 18.9815C73.7 18.9815 71.6053 19.265 70.046 19.7533V40.6538H64.1398V15.863H64.124ZM92.2693 0.0183105H98.1913V14.9022C99.4513 14.2407 101.893 13.595 104.224 13.595C111.878 13.595 117.611 18.4775 117.611 26.9826C117.611 35.535 111.941 41.2681 102.145 41.2681C98.3173 41.2681 94.9625 40.4806 92.2693 39.5356V0.0183105ZM98.1913 35.6453C99.3253 36.0075 100.822 36.1965 102.318 36.1965C107.752 36.1965 111.642 33.204 111.642 27.1086C111.642 21.9583 107.988 18.9185 103.515 18.9185C101.184 18.9185 99.3883 19.5171 98.1913 20.1786V35.6453ZM134.731 22.9191C134.731 20.0526 132.558 18.7295 129.628 18.7295C126.589 18.7295 124.195 19.6273 121.99 20.8873V15.737C124.627 14.3035 127.587 13.5663 130.589 13.595C136.385 13.595 140.512 15.989 140.512 22.6198V40.1341C137.992 40.7956 134.416 41.2051 131.424 41.2051C124.557 41.2051 119.533 39.126 119.533 33.141C119.533 27.7544 124.132 25.1241 131.786 25.1241H134.716V22.9191H134.731ZM134.731 29.0617H132.211C128.085 29.0617 125.392 30.2744 125.392 32.9677C125.392 35.7083 127.912 36.7793 131.487 36.7793C132.385 36.7793 133.645 36.669 134.716 36.4958V29.0774L134.731 29.0617ZM144.811 33.5032C147.119 35.3319 149.949 36.3798 152.891 36.4958C155.521 36.4958 157.254 35.598 157.254 33.5032C157.254 31.3455 155.695 30.5737 152.293 29.6759C146.78 28.4159 144.465 26.2109 144.465 21.5961C144.465 16.2253 148.528 13.595 153.915 13.595C156.907 13.595 159.286 14.2407 161.506 15.6268V21.0606C159.396 19.376 156.788 18.4348 154.088 18.383C151.521 18.383 150.151 19.6431 150.151 21.3756C150.151 23.1081 151.269 23.9901 154.324 24.8406C160.372 26.1479 162.987 28.4159 162.987 33.1882C162.987 38.7638 158.75 41.2681 153.017 41.2681C150.141 41.3255 147.306 40.584 144.827 39.126V33.5032H144.811ZM171.098 28.7782V28.8884C171.46 33.6135 175.508 36.1965 179.65 36.1965C183.289 36.1965 185.919 35.346 188.549 33.6135V38.811C186.155 40.4963 182.627 41.2681 179.225 41.2681C170.972 41.2681 165.365 36.0075 165.365 27.6442C165.365 19.2178 170.862 13.595 178.154 13.595C185.872 13.595 189.51 18.5563 189.51 25.7856V28.7782H171.082H171.098ZM183.95 24.9509C183.824 20.8243 181.792 18.5563 177.965 18.5563C174.563 18.5563 172.059 20.9503 171.271 24.9509H183.95Z" fill="#424147"/>
</svg>
