<svg width="193" height="38" viewBox="0 0 193 38" fill="none" xmlns="http://www.w3.org/2000/svg">
<path d="M22.8208 7.19242L11.6653 14.3131L22.8208 21.4337L11.6653 28.5544L0.509766 21.3744L11.6653 14.2537L0.509766 7.19242L11.6653 0.0717773L22.8208 7.19242ZM11.606 30.8092L22.7615 23.6886L33.917 30.8092L22.7615 37.9299L11.606 30.8092ZM22.8208 21.3744L33.9764 14.2537L22.8208 7.19242L33.917 0.0717773L45.0726 7.19242L33.917 14.3131L45.0726 21.4337L33.917 28.5544L22.8208 21.3744Z" fill="#424147"/>
<path d="M53.793 7.19217H62.8123C68.5681 7.19217 73.3152 10.5151 73.3152 18.1105V19.7126C73.3152 27.3673 68.8648 30.809 62.9904 30.809H53.793V7.19217ZM58.8367 11.4646V26.4773H62.6937C65.9573 26.4773 68.1528 24.3411 68.1528 19.594V18.3479C68.1528 13.6008 65.8386 11.4646 62.5156 11.4646H58.8367ZM75.9854 11.7019H80.0203L80.6731 16.1523C81.4445 13.126 83.4026 11.5239 86.9629 11.5239H88.209V16.627H86.1322C82.0378 16.627 81.0291 18.0512 81.0291 22.0862V30.8683H76.0447V11.7019H75.9854ZM89.2177 21.6708V21.1368C89.2177 14.7282 93.312 11.2272 98.8898 11.2272C104.586 11.2272 108.562 14.7282 108.562 21.1368V21.6708C108.562 27.9607 104.705 31.343 98.8898 31.343C92.7187 31.2837 89.2177 27.9607 89.2177 21.6708ZM103.459 21.6115V21.1368C103.459 17.5765 101.679 15.4403 98.8305 15.4403C96.0416 15.4403 94.2021 17.3984 94.2021 21.1368V21.6115C94.2021 25.0531 95.9823 27.0113 98.8305 27.0113C101.679 26.952 103.459 25.0531 103.459 21.6115ZM111.173 11.7019H115.326L115.801 15.3216C116.81 12.8887 118.946 11.2272 122.091 11.2272C126.957 11.2272 130.161 14.7282 130.161 21.1961V21.7302C130.161 28.0201 126.601 31.343 122.091 31.343C119.065 31.343 116.988 29.9783 115.979 27.7827V37.4549H111.113L111.173 11.7019ZM125.117 21.6115V21.1961C125.117 17.3984 123.159 15.4996 120.548 15.4996C117.759 15.4996 115.92 17.6358 115.92 21.1961V21.5522C115.92 24.9345 117.7 27.0707 120.489 27.0707C123.337 27.0113 125.117 25.1718 125.117 21.6115ZM137.519 27.308L137.103 30.809H132.831V5.29333H137.697V15.0842C138.765 12.592 140.901 11.2272 143.927 11.2272C148.496 11.2865 151.879 14.4315 151.879 20.7807V21.3741C151.879 27.7234 148.674 31.343 143.809 31.343C140.604 31.2837 138.528 29.8002 137.519 27.308ZM146.776 21.3741V20.8994C146.776 17.3984 144.877 15.4403 142.207 15.4403C139.477 15.4403 137.578 17.6358 137.578 20.9588V21.3741C137.578 24.9345 139.418 27.0113 142.147 27.0113C145.055 27.0113 146.776 25.1718 146.776 21.3741ZM154.015 21.6708V21.1368C154.015 14.7282 158.109 11.2272 163.687 11.2272C169.383 11.2272 173.359 14.7282 173.359 21.1368V21.6708C173.359 27.9607 169.443 31.343 163.687 31.343C157.516 31.2837 154.015 27.9607 154.015 21.6708ZM168.315 21.6115V21.1368C168.315 17.5765 166.535 15.4403 163.687 15.4403C160.898 15.4403 159.059 17.3984 159.059 21.1368V21.6115C159.059 25.0531 160.839 27.0113 163.687 27.0113C166.535 26.952 168.315 25.0531 168.315 21.6115ZM179.886 20.8994L173.181 11.7019H178.937L182.794 17.4578L186.71 11.7019H192.406L185.583 20.8401L192.762 30.809H187.125L182.734 24.4597L178.462 30.809H172.588L179.886 20.8994Z" fill="#424147"/>
</svg>
