<svg width="330" height="40" viewBox="0 0 330 40" fill="none" xmlns="http://www.w3.org/2000/svg">
<rect width="330" height="40" rx="10" fill="url(#paint0_linear_28_19)"/>
<path d="M71.918 24.686C73.442 23.462 74.636 22.46 75.5 21.68C76.364 20.888 77.09 20.066 77.678 19.214C78.278 18.35 78.578 17.504 78.578 16.676C78.578 15.896 78.386 15.284 78.002 14.84C77.63 14.384 77.024 14.156 76.184 14.156C75.368 14.156 74.732 14.414 74.276 14.93C73.832 15.434 73.592 16.112 73.556 16.964H71.972C72.02 15.62 72.428 14.582 73.196 13.85C73.964 13.118 74.954 12.752 76.166 12.752C77.402 12.752 78.38 13.094 79.1 13.778C79.832 14.462 80.198 15.404 80.198 16.604C80.198 17.6 79.898 18.572 79.298 19.52C78.71 20.456 78.038 21.284 77.282 22.004C76.526 22.712 75.56 23.54 74.384 24.488H80.576V25.856H71.918V24.686ZM82.4695 19.358C82.4695 17.294 82.8055 15.686 83.4775 14.534C84.1495 13.37 85.3255 12.788 87.0055 12.788C88.6735 12.788 89.8435 13.37 90.5155 14.534C91.1875 15.686 91.5235 17.294 91.5235 19.358C91.5235 21.458 91.1875 23.09 90.5155 24.254C89.8435 25.418 88.6735 26 87.0055 26C85.3255 26 84.1495 25.418 83.4775 24.254C82.8055 23.09 82.4695 21.458 82.4695 19.358ZM89.9035 19.358C89.9035 18.314 89.8315 17.432 89.6875 16.712C89.5555 15.98 89.2735 15.392 88.8415 14.948C88.4215 14.504 87.8095 14.282 87.0055 14.282C86.1895 14.282 85.5655 14.504 85.1335 14.948C84.7135 15.392 84.4315 15.98 84.2875 16.712C84.1555 17.432 84.0895 18.314 84.0895 19.358C84.0895 20.438 84.1555 21.344 84.2875 22.076C84.4315 22.808 84.7135 23.396 85.1335 23.84C85.5655 24.284 86.1895 24.506 87.0055 24.506C87.8095 24.506 88.4215 24.284 88.8415 23.84C89.2735 23.396 89.5555 22.808 89.6875 22.076C89.8315 21.344 89.9035 20.438 89.9035 19.358ZM93.4123 15.92C93.4123 15.104 93.6583 14.456 94.1503 13.976C94.6423 13.484 95.2723 13.238 96.0403 13.238C96.8083 13.238 97.4383 13.484 97.9303 13.976C98.4223 14.456 98.6683 15.104 98.6683 15.92C98.6683 16.748 98.4223 17.408 97.9303 17.9C97.4383 18.38 96.8083 18.62 96.0403 18.62C95.2723 18.62 94.6423 18.38 94.1503 17.9C93.6583 17.408 93.4123 16.748 93.4123 15.92ZM103.924 13.436L96.6343 26H95.0143L102.304 13.436H103.924ZM96.0403 14.246C95.6323 14.246 95.3083 14.39 95.0683 14.678C94.8403 14.954 94.7263 15.368 94.7263 15.92C94.7263 16.472 94.8403 16.892 95.0683 17.18C95.3083 17.468 95.6323 17.612 96.0403 17.612C96.4483 17.612 96.7723 17.468 97.0123 17.18C97.2523 16.88 97.3723 16.46 97.3723 15.92C97.3723 15.368 97.2523 14.954 97.0123 14.678C96.7723 14.39 96.4483 14.246 96.0403 14.246ZM100.306 23.516C100.306 22.688 100.552 22.034 101.044 21.554C101.536 21.062 102.166 20.816 102.934 20.816C103.702 20.816 104.326 21.062 104.806 21.554C105.298 22.034 105.544 22.688 105.544 23.516C105.544 24.332 105.298 24.986 104.806 25.478C104.326 25.97 103.702 26.216 102.934 26.216C102.166 26.216 101.536 25.976 101.044 25.496C100.552 25.004 100.306 24.344 100.306 23.516ZM102.916 21.842C102.508 21.842 102.184 21.986 101.944 22.274C101.704 22.55 101.584 22.964 101.584 23.516C101.584 24.056 101.704 24.47 101.944 24.758C102.184 25.034 102.508 25.172 102.916 25.172C103.324 25.172 103.648 25.034 103.888 24.758C104.128 24.47 104.248 24.056 104.248 23.516C104.248 22.964 104.128 22.55 103.888 22.274C103.648 21.986 103.324 21.842 102.916 21.842ZM217.618 14.48V12.986H221.002V26H219.346V14.48H217.618ZM234.914 26L230.684 14.732H230.612C230.636 14.972 230.654 15.278 230.666 15.65C230.69 16.022 230.708 16.43 230.72 16.874C230.732 17.306 230.738 17.75 230.738 18.206V26H229.244V13.148H231.638L235.598 23.678H235.67L239.702 13.148H242.078V26H240.476V18.098C240.476 17.678 240.482 17.264 240.494 16.856C240.506 16.436 240.524 16.046 240.548 15.686C240.572 15.314 240.59 15.002 240.602 14.75H240.53L236.246 26H234.914ZM252.756 26H245.574V13.148H252.756V14.57H247.194V18.584H252.432V19.988H247.194V24.578H252.756V26ZM261.084 14.39C260.4 14.39 259.782 14.51 259.23 14.75C258.678 14.978 258.21 15.32 257.826 15.776C257.442 16.22 257.148 16.766 256.944 17.414C256.74 18.05 256.638 18.77 256.638 19.574C256.638 20.63 256.8 21.548 257.124 22.328C257.46 23.108 257.952 23.708 258.6 24.128C259.26 24.548 260.082 24.758 261.066 24.758C261.63 24.758 262.164 24.71 262.668 24.614C263.172 24.518 263.664 24.398 264.144 24.254V25.658C263.664 25.838 263.166 25.97 262.65 26.054C262.146 26.138 261.54 26.18 260.832 26.18C259.524 26.18 258.432 25.91 257.556 25.37C256.68 24.83 256.02 24.062 255.576 23.066C255.144 22.07 254.928 20.9 254.928 19.556C254.928 18.584 255.06 17.696 255.324 16.892C255.6 16.088 255.996 15.392 256.512 14.804C257.04 14.216 257.688 13.766 258.456 13.454C259.224 13.13 260.106 12.968 261.102 12.968C261.762 12.968 262.398 13.034 263.01 13.166C263.622 13.298 264.168 13.484 264.648 13.724L264 15.092C263.604 14.912 263.16 14.75 262.668 14.606C262.188 14.462 261.66 14.39 261.084 14.39ZM270.819 20.672L267.489 26H265.599L269.199 20.384C268.743 20.228 268.311 20.012 267.903 19.736C267.507 19.46 267.183 19.082 266.931 18.602C266.679 18.122 266.553 17.504 266.553 16.748C266.553 15.584 266.955 14.696 267.759 14.084C268.563 13.46 269.763 13.148 271.359 13.148H274.959V26H273.339V20.672H270.819ZM271.395 14.534C270.711 14.534 270.135 14.612 269.667 14.768C269.199 14.924 268.839 15.17 268.587 15.506C268.347 15.842 268.227 16.28 268.227 16.82C268.227 17.612 268.491 18.224 269.019 18.656C269.547 19.088 270.363 19.304 271.467 19.304H273.339V14.534H271.395ZM289.659 24.578V29.384H288.111V26H278.445V13.148H280.065V24.56H286.491V13.148H288.093V24.578H289.659Z" fill="white"/>
<path d="M118.367 14.39C117.683 14.39 117.065 14.51 116.513 14.75C115.961 14.978 115.493 15.32 115.109 15.776C114.725 16.22 114.431 16.766 114.227 17.414C114.023 18.05 113.921 18.77 113.921 19.574C113.921 20.63 114.083 21.548 114.407 22.328C114.743 23.108 115.235 23.708 115.883 24.128C116.543 24.548 117.365 24.758 118.349 24.758C118.913 24.758 119.447 24.71 119.951 24.614C120.455 24.518 120.947 24.398 121.427 24.254V25.658C120.947 25.838 120.449 25.97 119.933 26.054C119.429 26.138 118.823 26.18 118.115 26.18C116.807 26.18 115.715 25.91 114.839 25.37C113.963 24.83 113.303 24.062 112.859 23.066C112.427 22.07 112.211 20.9 112.211 19.556C112.211 18.584 112.343 17.696 112.607 16.892C112.883 16.088 113.279 15.392 113.795 14.804C114.323 14.216 114.971 13.766 115.739 13.454C116.507 13.13 117.389 12.968 118.385 12.968C119.045 12.968 119.681 13.034 120.293 13.166C120.905 13.298 121.451 13.484 121.931 13.724L121.283 15.092C120.887 14.912 120.443 14.75 119.951 14.606C119.471 14.462 118.943 14.39 118.367 14.39ZM133.61 26H131.666L125.852 19.484V26H124.232V13.148H125.852V19.376L131.522 13.148H133.358L127.778 19.394L133.61 26ZM135.377 13.148H136.889V20.204C136.889 20.504 136.883 20.834 136.871 21.194C136.871 21.542 136.865 21.89 136.853 22.238C136.841 22.586 136.823 22.898 136.799 23.174C136.787 23.438 136.775 23.642 136.763 23.786H136.835L143.909 13.148H145.709V26H144.197V19.016C144.197 18.692 144.203 18.344 144.215 17.972C144.227 17.588 144.239 17.222 144.251 16.874C144.275 16.514 144.293 16.196 144.305 15.92C144.317 15.644 144.329 15.44 144.341 15.308H144.269L137.177 26H135.377V13.148ZM157.834 13.148V24.56H159.472V29.384H157.924V26H149.086V29.384H147.538V24.56H148.528C148.96 23.816 149.368 22.982 149.752 22.058C150.148 21.134 150.496 20.168 150.796 19.16C151.096 18.14 151.342 17.12 151.534 16.1C151.726 15.08 151.846 14.096 151.894 13.148H157.834ZM153.316 14.606C153.268 15.302 153.148 16.088 152.956 16.964C152.776 17.84 152.542 18.74 152.254 19.664C151.978 20.576 151.666 21.458 151.318 22.31C150.982 23.162 150.622 23.912 150.238 24.56H156.232V14.606H153.316ZM170.999 26H169.055L163.241 19.484V26H161.621V13.148H163.241V19.376L168.911 13.148H170.747L165.167 19.394L170.999 26ZM180.812 26L179.264 22.022H174.17L172.64 26H171.002L176.024 13.094H177.482L182.486 26H180.812ZM177.338 16.694C177.302 16.598 177.242 16.424 177.158 16.172C177.074 15.92 176.99 15.662 176.906 15.398C176.834 15.122 176.774 14.912 176.726 14.768C176.666 15.008 176.6 15.254 176.528 15.506C176.468 15.746 176.402 15.968 176.33 16.172C176.27 16.376 176.216 16.55 176.168 16.694L174.71 20.582H178.778L177.338 16.694ZM198.871 26H197.251V20.006H190.663V26H189.043V13.148H190.663V18.584H197.251V13.148H198.871V26ZM210.449 26L208.901 22.022H203.807L202.277 26H200.639L205.661 13.094H207.119L212.123 26H210.449ZM206.975 16.694C206.939 16.598 206.879 16.424 206.795 16.172C206.711 15.92 206.627 15.662 206.543 15.398C206.471 15.122 206.411 14.912 206.363 14.768C206.303 15.008 206.237 15.254 206.165 15.506C206.105 15.746 206.039 15.968 205.967 16.172C205.907 16.376 205.853 16.55 205.805 16.694L204.347 20.582H208.415L206.975 16.694Z" fill="white" fill-opacity="0.6"/>
<path opacity="0.4" d="M41.9988 33.3309C40.9735 33.3309 39.9495 32.9416 39.1668 32.1643L38.1935 31.1909C37.8161 30.8149 37.3108 30.6069 36.7748 30.6056H35.4055C33.1921 30.6056 31.3908 28.8043 31.3908 26.5909V25.2203C31.3895 24.6856 31.1815 24.1803 30.8041 23.8003L29.8468 22.8443C28.2788 21.2856 28.2721 18.7376 29.8321 17.1683L30.8055 16.1936C31.1815 15.8163 31.3895 15.3109 31.3908 14.7749V13.4069C31.3908 11.1923 33.1921 9.39094 35.4055 9.39094H36.7761C37.3108 9.39094 37.8148 9.18294 38.1948 8.80294L39.1535 7.84694C40.7121 6.27894 43.2588 6.27094 44.8295 7.83227L45.8028 8.80561C46.1815 9.18294 46.6855 9.39094 47.2201 9.39094H48.5908C50.8041 9.39094 52.6055 11.1923 52.6055 13.4069V14.7763C52.6068 15.3109 52.8148 15.8163 53.1921 16.1963L54.1495 17.1536C54.9081 17.9083 55.3281 18.9136 55.3321 19.9869C55.3348 21.0536 54.9241 22.0576 54.1761 22.8163C54.1628 22.8296 54.1508 22.8443 54.1375 22.8563L53.1908 23.8029C52.8148 24.1803 52.6068 24.6856 52.6055 25.2216V26.5909C52.6055 28.8043 50.8041 30.6056 48.5908 30.6056H47.2201C46.6855 30.6069 46.1801 30.8149 45.8015 31.1923L44.8428 32.1496C44.0615 32.9363 43.0295 33.3309 41.9988 33.3309Z" fill="#393939"/>
<path fill-rule="evenodd" clip-rule="evenodd" d="M39.3904 17.4012C39.1704 17.6212 38.8851 17.7399 38.5691 17.7399C38.2731 17.7399 37.9824 17.6185 37.7491 17.3999C37.5277 17.1799 37.4024 16.8785 37.4024 16.5732C37.4024 16.2825 37.5251 15.9839 37.7411 15.7532C37.8597 15.6332 38.0011 15.5425 38.1424 15.4945C38.5451 15.3105 39.0797 15.4185 39.3971 15.7519C39.5104 15.8652 39.5971 15.9892 39.6544 16.1185C39.7171 16.2572 39.7491 16.4145 39.7491 16.5732C39.7491 16.8905 39.6224 17.1852 39.3904 17.4012ZM46.254 15.7464C45.7993 15.2931 45.0593 15.2931 44.6047 15.7464L37.7513 22.5997C37.2967 23.0544 37.2967 23.7944 37.7513 24.2504C37.9727 24.4704 38.2647 24.5917 38.5767 24.5917C38.8887 24.5917 39.1807 24.4704 39.4007 24.2504L46.254 17.3971C46.7087 16.9411 46.7087 16.2024 46.254 15.7464ZM45.8744 22.3519C45.4424 22.1705 44.9304 22.2692 44.5891 22.6105C44.5184 22.6932 44.4184 22.8212 44.3504 22.9719C44.2784 23.1345 44.2691 23.3092 44.2691 23.4265C44.2691 23.5439 44.2784 23.7172 44.3504 23.8799C44.4171 24.0292 44.4971 24.1505 44.6024 24.2559C44.8437 24.4799 45.1237 24.5932 45.4357 24.5932C45.7317 24.5932 46.0224 24.4732 46.2611 24.2505C46.4731 24.0385 46.5891 23.7452 46.5891 23.4265C46.5891 23.1065 46.4731 22.8145 46.2597 22.6012C46.1424 22.4852 46.0011 22.3945 45.8744 22.3519Z" fill="#00F6FF"/>
<defs>
<linearGradient id="paint0_linear_28_19" x1="0" y1="0" x2="16.163" y2="93.9767" gradientUnits="userSpaceOnUse">
<stop stop-color="#272727"/>
<stop offset="1" stop-color="#11101D"/>
</linearGradient>
</defs>
</svg>
