<svg width="201" height="32" viewBox="0 0 201 32" fill="none" xmlns="http://www.w3.org/2000/svg">
<path d="M6.48044 7.26288V14.3637H16.0159V18.8677H6.48044V26.3743H17.2332V31H0.799763V2.63718H17.2332V7.26288H6.48044ZM20.9348 19.7604C20.9348 17.434 21.4082 15.4052 22.355 13.6739C23.3017 11.9156 24.6137 10.5631 26.2909 9.6163C27.968 8.64247 29.8886 8.15556 32.0527 8.15556C34.8389 8.15556 37.1382 8.85888 38.9507 10.2655C40.7901 11.6451 42.0209 13.5928 42.6431 16.1085H36.5161C36.1915 15.1347 35.6369 14.3773 34.8524 13.8362C34.095 13.2682 33.1482 12.9841 32.0121 12.9841C30.3891 12.9841 29.1041 13.5793 28.1574 14.7695C27.2106 15.9327 26.7372 17.5963 26.7372 19.7604C26.7372 21.8974 27.2106 23.561 28.1574 24.7513C29.1041 25.9144 30.3891 26.496 32.0121 26.496C34.3114 26.496 35.8128 25.4681 36.5161 23.4122H42.6431C42.0209 25.8468 40.7901 27.7809 38.9507 29.2146C37.1112 30.6483 34.8119 31.3652 32.0527 31.3652C29.8886 31.3652 27.968 30.8918 26.2909 29.945C24.6137 28.9712 23.3017 27.6186 22.355 25.8874C21.4082 24.1291 20.9348 22.0867 20.9348 19.7604ZM59.4645 8.19613C61.1687 8.19613 62.6835 8.57485 64.009 9.33227C65.3345 10.0626 66.3625 11.1582 67.0928 12.6189C67.8503 14.0526 68.229 15.7839 68.229 17.8127V31H62.5483V18.5837C62.5483 16.7983 62.102 15.4322 61.2093 14.4855C60.3166 13.5116 59.0993 13.0247 57.5574 13.0247C55.9885 13.0247 54.7441 13.5116 53.8244 14.4855C52.9317 15.4322 52.4854 16.7983 52.4854 18.5837V31H46.8047V0.973559H52.4854V11.3205C53.2157 10.3467 54.1896 9.58925 55.4069 9.04824C56.6242 8.48017 57.9767 8.19613 59.4645 8.19613ZM83.6128 31.3652C81.4487 31.3652 79.501 30.8918 77.7698 29.945C76.0385 28.9712 74.6725 27.6051 73.6716 25.8468C72.6977 24.0885 72.2108 22.0597 72.2108 19.7604C72.2108 17.4611 72.7113 15.4322 73.7122 13.6739C74.7401 11.9156 76.1332 10.5631 77.8915 9.6163C79.6498 8.64247 81.611 8.15556 83.7751 8.15556C85.9391 8.15556 87.9003 8.64247 89.6586 9.6163C91.4169 10.5631 92.7965 11.9156 93.7974 13.6739C94.8253 15.4322 95.3393 17.4611 95.3393 19.7604C95.3393 22.0597 94.8118 24.0885 93.7568 25.8468C92.7289 27.6051 91.3223 28.9712 89.5369 29.945C87.7786 30.8918 85.8039 31.3652 83.6128 31.3652ZM83.6128 26.4149C84.6407 26.4149 85.601 26.1714 86.4937 25.6845C87.4134 25.1705 88.1438 24.4131 88.6848 23.4122C89.2258 22.4114 89.4963 21.1941 89.4963 19.7604C89.4963 17.6234 88.9283 15.9868 87.7921 14.8506C86.683 13.6875 85.317 13.1059 83.6939 13.1059C82.0709 13.1059 80.7048 13.6875 79.5957 14.8506C78.5137 15.9868 77.9727 17.6234 77.9727 19.7604C77.9727 21.8974 78.5002 23.5475 79.5551 24.7107C80.6372 25.8468 81.9897 26.4149 83.6128 26.4149Z" fill="white"/>
<path d="M115.575 16.4737C117.171 16.7713 118.482 17.5693 119.51 18.8677C120.538 20.1661 121.052 21.6539 121.052 23.3311C121.052 24.8459 120.674 26.1849 119.916 27.3481C119.186 28.4843 118.117 29.3769 116.711 30.0262C115.304 30.6754 113.64 31 111.72 31H99.5063V2.67776H111.192C113.113 2.67776 114.763 2.98885 116.143 3.61102C117.549 4.23319 118.604 5.09881 119.308 6.2079C120.038 7.31698 120.403 8.57485 120.403 9.98149C120.403 11.6316 119.957 13.0112 119.064 14.1203C118.198 15.2294 117.035 16.0138 115.575 16.4737ZM105.187 14.3637H110.381C111.733 14.3637 112.775 14.0662 113.505 13.4711C114.235 12.8489 114.601 11.9697 114.601 10.8336C114.601 9.69746 114.235 8.8183 113.505 8.19613C112.775 7.57396 111.733 7.26288 110.381 7.26288H105.187V14.3637ZM110.908 26.3743C112.288 26.3743 113.356 26.0497 114.114 25.4005C114.898 24.7513 115.29 23.8315 115.29 22.6413C115.29 21.424 114.885 20.4772 114.073 19.8009C113.262 19.0976 112.166 18.746 110.787 18.746H105.187V26.3743H110.908ZM124.119 19.6792C124.119 17.4069 124.565 15.3917 125.458 13.6334C126.378 11.875 127.609 10.5225 129.15 9.57573C130.719 8.62895 132.464 8.15556 134.385 8.15556C136.062 8.15556 137.523 8.49369 138.767 9.16996C140.038 9.84624 141.053 10.6983 141.81 11.7263V8.52075H147.531V31H141.81V27.7133C141.08 28.7683 140.065 29.6475 138.767 30.3508C137.496 31.0271 136.021 31.3652 134.344 31.3652C132.451 31.3652 130.719 30.8783 129.15 29.9044C127.609 28.9306 126.378 27.5645 125.458 25.8062C124.565 24.0209 124.119 21.9785 124.119 19.6792ZM141.81 19.7604C141.81 18.3808 141.54 17.2041 140.999 16.2302C140.458 15.2294 139.727 14.4719 138.808 13.958C137.888 13.4169 136.9 13.1464 135.846 13.1464C134.791 13.1464 133.817 13.4034 132.924 13.9174C132.031 14.4314 131.301 15.1888 130.733 16.1897C130.192 17.1635 129.921 18.3267 129.921 19.6792C129.921 21.0318 130.192 22.222 130.733 23.2499C131.301 24.2508 132.031 25.0218 132.924 25.5628C133.844 26.1038 134.818 26.3743 135.846 26.3743C136.9 26.3743 137.888 26.1173 138.808 25.6034C139.727 25.0623 140.458 24.3049 140.999 23.3311C141.54 22.3302 141.81 21.14 141.81 19.7604ZM165.537 8.19613C168.215 8.19613 170.379 9.04824 172.029 10.7524C173.679 12.4296 174.504 14.783 174.504 17.8127V31H168.823V18.5837C168.823 16.7983 168.377 15.4322 167.484 14.4855C166.592 13.5116 165.374 13.0247 163.832 13.0247C162.263 13.0247 161.019 13.5116 160.099 14.4855C159.207 15.4322 158.76 16.7983 158.76 18.5837V31H153.08V8.52075H158.76V11.3205C159.518 10.3467 160.478 9.58925 161.641 9.04824C162.831 8.48017 164.13 8.19613 165.537 8.19613ZM193.215 31L185.587 21.424V31H179.906V0.973559H185.587V18.0562L193.134 8.52075H200.519L190.618 19.8009L200.6 31H193.215Z" fill="#5CE1E6"/>
</svg>
